# xmcd
#
# Track frame offsets:
#	150
#	22940
#	47913
#	67490
#	85135
#	100200
#	121463
#	143403
#	165480
#	188838
#	207945
#	230023
#	253950
#
# Disc length: 3702 seconds
# Revision: 0
# Processed by: cddbd v1.5.2PL0 Copyright (c) Steve Scherf et al.
# Submitted via: dBpowerAMP V12.0
#
DISCID=b80e740d
DTITLE=Luther Vandross - Songs
DYEAR=1994
DGENRE=R&B
TTITLE0=Love The One You're With
TTITLE1=Killing Me Softly
TTITLE2=Endless Love (Duet with Mariah Carey)
TTITLE3=Evergreen
TTITLE4=Reflections
TTITLE5=Hello
TTITLE6=Ain't No Stoppin' Us Now
TTITLE7=Always And Forever
TTITLE8=Going In Circles
TTITLE9=Since You've Been Gone
TTITLE10=All The Woman I Need
TTITLE11=What The World Needs Now Is Love
TTITLE12=The Impossible Dream
EXTD=
EXTT0=
EXTT1=
EXTT2=
EXTT3=
EXTT4=
EXTT5=
EXTT6=
EXTT7=
EXTT8=
EXTT9=
EXTT10=
EXTT11=
EXTT12=
PLAYORDER=
